<svg width="48" height="48" viewBox="0 0 48 48" fill="none" xmlns="http://www.w3.org/2000/svg">
<path d="M18 18H10" stroke="white" stroke-width="2"/>
<path d="M18 14H10" stroke="white" stroke-width="2"/>
<path d="M41.8 6H6.2C6.08954 6 6 6.08954 6 6.2V41.8C6 41.9105 6.08954 42 6.2 42H41.8C41.9105 42 42 41.9105 42 41.8V35.2C42 35.0895 41.9105 35 41.8 35H21.2C21.0895 35 21 34.9105 21 34.8V13.2C21 13.0895 21.0895 13 21.2 13H41.8C41.9105 13 42 12.9105 42 12.8V6.2C42 6.08954 41.9105 6 41.8 6Z" stroke="white" stroke-width="2"/>
<circle cx="14" cy="34" r="3" stroke="white" stroke-width="2"/>
<path d="M29 13V16.8C29 16.9105 29.0895 17 29.2 17H34.8C34.9105 17 35 16.9105 35 16.8V13" stroke="white" stroke-width="2"/>
<path d="M26 34V22.2C26 22.0895 26.0895 22 26.2 22H37.8C37.9105 22 38 22.0895 38 22.2V34" stroke="white" stroke-width="2"/>
<path d="M38 25H40.8C40.9105 25 41 25.0895 41 25.2V30.8C41 30.9105 40.9105 31 40.8 31H38" stroke="white" stroke-width="2"/>
</svg>
