<svg width="270" height="270" viewBox="0 0 270 270" fill="none" xmlns="http://www.w3.org/2000/svg">
<circle cx="135.148" cy="107" r="24" stroke="#D9D9D9" stroke-width="16" stroke-linecap="round"/>
<path d="M161.292 107C163.414 103.325 166.908 100.643 171.007 99.5452C175.106 98.4469 179.473 99.0219 183.148 101.144C186.823 103.265 189.505 106.76 190.603 110.859C191.702 114.958 191.127 119.325 189.005 123C186.883 126.675 183.388 129.357 179.29 130.455C175.191 131.553 170.823 130.978 167.148 128.856C163.473 126.735 160.792 123.24 159.694 119.141C158.595 115.042 159.17 110.675 161.292 107L161.292 107Z" stroke="#D9D9D9" stroke-width="16"/>
<path d="M81.292 107C83.4138 103.325 86.9085 100.643 91.0073 99.5452C95.1062 98.4469 99.4735 99.0219 103.148 101.144C106.823 103.265 109.505 106.76 110.603 110.859C111.702 114.958 111.127 119.325 109.005 123C106.883 126.675 103.388 129.357 99.2895 130.455C95.1907 131.553 90.8234 130.978 87.1484 128.856C83.4735 126.735 80.7919 123.24 79.6936 119.141C78.5953 115.042 79.1703 110.675 81.292 107L81.292 107Z" stroke="#D9D9D9" stroke-width="16"/>
<path d="M174.201 187L166.358 188.579L167.652 195H174.201V187ZM204.91 178.233L212.449 175.559L204.91 178.233ZM157.395 160.684L152.556 154.314L143.303 161.341L153.169 167.478L157.395 160.684ZM198.086 179H174.201V195H198.086V179ZM197.37 180.908C197.313 180.749 197.262 180.448 197.328 180.083C197.391 179.737 197.534 179.475 197.669 179.306C197.927 178.986 198.14 179 198.086 179V195C207.254 195 216.279 186.356 212.449 175.559L197.37 180.908ZM175.148 163C188.281 163 194.37 172.449 197.37 180.908L212.449 175.559C208.729 165.07 198.736 147 175.148 147V163ZM162.233 167.055C165.309 164.719 169.404 163 175.148 163V147C165.853 147 158.37 149.897 152.556 154.314L162.233 167.055ZM153.169 167.478C161.483 172.648 164.965 181.659 166.358 188.579L182.043 185.421C180.3 176.763 175.447 162.491 161.62 153.891L153.169 167.478Z" fill="#D9D9D9"/>
<path d="M112.902 160.684L117.127 167.477L126.994 161.341L117.741 154.313L112.902 160.684ZM65.3873 178.233L72.9271 180.908L72.9271 180.908L65.3873 178.233ZM96.0958 187V195H102.645L103.938 188.579L96.0958 187ZM95.149 163C100.893 163 104.988 164.719 108.064 167.055L117.741 154.313C111.927 149.897 104.444 147 95.149 147V163ZM72.9271 180.908C75.9275 172.449 82.0163 163 95.149 163V147C71.561 147 61.568 165.07 57.8476 175.559L72.9271 180.908ZM72.2112 179C72.157 179 72.37 178.986 72.6278 179.306C72.763 179.475 72.9058 179.737 72.9688 180.083C73.0353 180.448 72.9834 180.749 72.9271 180.908L57.8476 175.559C54.018 186.355 63.0431 195 72.2112 195V179ZM96.0958 179H72.2112V195H96.0958V179ZM103.938 188.579C105.332 181.659 108.814 172.648 117.127 167.477L108.677 153.891C94.8495 162.491 89.9969 176.763 88.2532 185.421L103.938 188.579Z" fill="#D9D9D9"/>
<path d="M135.148 155C163.721 155 171.884 175.409 174.216 187.071C175.082 191.404 171.567 195 167.148 195H103.148C98.7302 195 95.2148 191.404 96.0812 187.071C98.4132 175.409 106.576 155 135.148 155Z" stroke="#D9D9D9" stroke-width="16" stroke-linecap="round"/>
</svg>
