<svg width="270" height="270" viewBox="0 0 270 270" fill="none" xmlns="http://www.w3.org/2000/svg">
<path d="M151 159L119 191L151 223" stroke="#D9D9D9" stroke-width="16"/>
<path d="M183.497 107C188.412 115.513 191 125.17 191 135C191 144.83 188.412 154.487 183.497 163C178.582 171.513 171.513 178.582 163 183.497C154.487 188.412 144.83 191 135 191" stroke="#D9D9D9" stroke-width="16" stroke-linecap="round"/>
<path d="M119 111L151 79L119 47" stroke="#D9D9D9" stroke-width="16"/>
<path d="M86.5026 163C81.5876 154.487 79 144.83 79 135C79 125.17 81.5876 115.513 86.5026 107C91.4176 98.4869 98.4869 91.4176 107 86.5026C115.513 81.5875 125.17 79 135 79" stroke="#D9D9D9" stroke-width="16" stroke-linecap="round"/>
</svg>
