<svg width="270" height="270" viewBox="0 0 270 270" fill="none" xmlns="http://www.w3.org/2000/svg">
<path d="M144.373 63H111C95.9151 63 88.3726 63 83.6863 67.6863C79 72.3726 79 79.9151 79 95V175C79 190.085 79 197.627 83.6863 202.314C88.3726 207 95.9151 207 111 207H159C174.085 207 181.627 207 186.314 202.314C191 197.627 191 190.085 191 175V109.627C191 106.357 191 104.722 190.391 103.252C189.782 101.782 188.626 100.626 186.314 98.3137L155.686 67.6863C153.374 65.374 152.218 64.2179 150.748 63.609C149.278 63 147.643 63 144.373 63Z" stroke="#D9D9D9" stroke-width="16"/>
<path d="M111 143.5L159 143.5" stroke="#D9D9D9" stroke-width="16" stroke-linecap="round"/>
<path d="M111 175L143 175" stroke="#D9D9D9" stroke-width="16" stroke-linecap="round"/>
<path d="M143 63.5V95.5C143 103.042 143 106.814 145.343 109.157C147.686 111.5 151.458 111.5 159 111.5H191" stroke="#D9D9D9" stroke-width="16"/>
</svg>
