<svg width="270" height="270" viewBox="0 0 270 270" fill="none" xmlns="http://www.w3.org/2000/svg">
<path d="M135 91V195" stroke="#D9D9D9" stroke-width="16" stroke-linecap="round"/>
<path d="M207 91L207 195" stroke="#D9D9D9" stroke-width="16" stroke-linecap="round"/>
<path d="M63 91L63 195" stroke="#D9D9D9" stroke-width="16" stroke-linecap="round"/>
<path d="M207 195C207 195 199 179 171 179C143 179 135 195 135 195" stroke="#D9D9D9" stroke-width="16" stroke-linecap="round"/>
<path d="M135 195C135 195 127 179 99 179C71 179 63 195 63 195" stroke="#D9D9D9" stroke-width="16" stroke-linecap="round"/>
<path d="M207 91C207 91 199 75 171 75C143 75 135 91 135 91" stroke="#D9D9D9" stroke-width="16" stroke-linecap="round"/>
<path d="M135 91C135 91 127 75 99 75C71 75 63 91 63 91" stroke="#D9D9D9" stroke-width="16" stroke-linecap="round"/>
</svg>
