<svg width="270" height="270" viewBox="0 0 270 270" fill="none" xmlns="http://www.w3.org/2000/svg">
<path d="M180.657 148.657L201.842 169.842C204.691 172.691 204.691 177.309 201.842 180.158C186.44 195.56 162.057 197.293 144.632 184.224L132.029 174.771C118.08 164.31 105.69 151.92 95.2286 137.971L85.7761 125.368C72.7073 107.943 74.4401 83.5599 89.8418 68.1582C92.6906 65.3094 97.3094 65.3094 100.158 68.1581L121.343 89.3431C124.467 92.4673 124.467 97.5327 121.343 100.657L113.174 108.826C111.876 110.124 111.554 112.108 112.375 113.75C121.868 132.736 137.264 148.132 156.25 157.625C157.892 158.446 159.876 158.124 161.174 156.826L169.343 148.657C172.467 145.533 177.533 145.533 180.657 148.657Z" stroke="#D9D9D9" stroke-width="16"/>
</svg>
